<svg xmlns="http://www.w3.org/2000/svg" xmlns:xlink="http://www.w3.org/1999/xlink" width="300" zoomAndPan="magnify" viewBox="0 0 224.87999 74.999997" height="100" preserveAspectRatio="xMidYMid meet" version="1.0"><defs><g/></defs><g fill="#ffffff" fill-opacity="1"><g transform="translate(50.199216, 47.267625)"><g><path d="M 18.375 -16.421875 L 15.140625 -15.5625 C 14.867188 -16.21875 14.550781 -16.785156 14.1875 -17.265625 C 13.820312 -17.753906 13.34375 -18.175781 12.75 -18.53125 C 12.34375 -18.789062 11.878906 -19 11.359375 -19.15625 C 10.847656 -19.320312 10.316406 -19.40625 9.765625 -19.40625 C 9.191406 -19.40625 8.648438 -19.347656 8.140625 -19.234375 C 7.640625 -19.128906 7.195312 -18.960938 6.8125 -18.734375 C 6.363281 -18.472656 6.003906 -18.128906 5.734375 -17.703125 C 5.472656 -17.273438 5.34375 -16.828125 5.34375 -16.359375 C 5.34375 -15.765625 5.546875 -15.242188 5.953125 -14.796875 C 6.234375 -14.535156 6.628906 -14.289062 7.140625 -14.0625 C 7.648438 -13.84375 8.191406 -13.640625 8.765625 -13.453125 L 12.640625 -12.328125 C 13.535156 -12.066406 14.296875 -11.769531 14.921875 -11.4375 C 15.554688 -11.113281 16.125 -10.71875 16.625 -10.25 C 17.238281 -9.6875 17.710938 -9.019531 18.046875 -8.25 C 18.390625 -7.488281 18.5625 -6.691406 18.5625 -5.859375 C 18.5625 -4.921875 18.320312 -4.007812 17.84375 -3.125 C 17.363281 -2.238281 16.707031 -1.523438 15.875 -0.984375 C 15.070312 -0.410156 14.171875 -0.03125 13.171875 0.15625 C 12.179688 0.351562 11.148438 0.453125 10.078125 0.453125 C 8.628906 0.453125 7.316406 0.234375 6.140625 -0.203125 C 4.972656 -0.640625 3.941406 -1.382812 3.046875 -2.4375 C 2.535156 -3.03125 2.128906 -3.679688 1.828125 -4.390625 C 1.523438 -5.109375 1.289062 -5.800781 1.125 -6.46875 L 4.359375 -7.359375 C 4.460938 -6.828125 4.609375 -6.320312 4.796875 -5.84375 C 4.992188 -5.363281 5.273438 -4.910156 5.640625 -4.484375 C 6.128906 -3.859375 6.789062 -3.378906 7.625 -3.046875 C 8.457031 -2.722656 9.300781 -2.5625 10.15625 -2.5625 C 10.832031 -2.5625 11.53125 -2.644531 12.25 -2.8125 C 12.976562 -2.988281 13.5625 -3.25 14 -3.59375 C 14.4375 -3.90625 14.738281 -4.273438 14.90625 -4.703125 C 15.082031 -5.128906 15.171875 -5.554688 15.171875 -5.984375 C 15.171875 -6.753906 14.882812 -7.40625 14.3125 -7.9375 C 14.007812 -8.21875 13.660156 -8.457031 13.265625 -8.65625 C 12.867188 -8.863281 12.414062 -9.039062 11.90625 -9.1875 L 7.84375 -10.375 C 7.070312 -10.601562 6.328125 -10.875 5.609375 -11.1875 C 4.898438 -11.5 4.269531 -11.898438 3.71875 -12.390625 C 3.113281 -12.921875 2.671875 -13.550781 2.390625 -14.28125 C 2.117188 -15.007812 1.984375 -15.734375 1.984375 -16.453125 C 1.984375 -17.546875 2.300781 -18.554688 2.9375 -19.484375 C 3.582031 -20.410156 4.375 -21.097656 5.3125 -21.546875 C 6.0625 -21.910156 6.8125 -22.148438 7.5625 -22.265625 C 8.320312 -22.378906 9.066406 -22.4375 9.796875 -22.4375 C 10.566406 -22.414062 11.347656 -22.328125 12.140625 -22.171875 C 12.941406 -22.015625 13.6875 -21.734375 14.375 -21.328125 C 16.1875 -20.296875 17.519531 -18.660156 18.375 -16.421875 Z M 18.375 -16.421875 "/></g></g></g><g fill="#ffffff" fill-opacity="1"><g transform="translate(69.856516, 47.267625)"><g><path d="M 6.65625 -13.921875 L 6.65625 -6.65625 C 6.65625 -5.976562 6.660156 -5.394531 6.671875 -4.90625 C 6.679688 -4.425781 6.785156 -4.019531 6.984375 -3.6875 C 7.191406 -3.34375 7.460938 -3.082031 7.796875 -2.90625 C 8.128906 -2.738281 8.476562 -2.632812 8.84375 -2.59375 C 9.269531 -2.550781 9.722656 -2.539062 10.203125 -2.5625 C 10.679688 -2.582031 11.132812 -2.632812 11.5625 -2.71875 L 11.5625 0 C 10.976562 0.144531 10.273438 0.222656 9.453125 0.234375 C 8.640625 0.242188 7.953125 0.207031 7.390625 0.125 C 6.628906 0 5.988281 -0.210938 5.46875 -0.515625 C 4.957031 -0.828125 4.507812 -1.304688 4.125 -1.953125 C 3.738281 -2.585938 3.535156 -3.273438 3.515625 -4.015625 C 3.492188 -4.753906 3.484375 -5.570312 3.484375 -6.46875 L 3.484375 -13.921875 L 0.3125 -13.921875 L 0.3125 -16.484375 L 3.484375 -16.484375 L 3.484375 -21.0625 L 6.65625 -21.0625 L 6.65625 -16.484375 L 11.5625 -16.484375 L 11.5625 -13.921875 Z M 6.65625 -13.921875 "/></g></g></g><g fill="#ffffff" fill-opacity="1"><g transform="translate(82.737549, 47.267625)"><g><path d="M 9.921875 -16.90625 C 10.773438 -16.96875 11.597656 -16.847656 12.390625 -16.546875 L 12.390625 -13.546875 C 12.003906 -13.691406 11.578125 -13.800781 11.109375 -13.875 C 10.640625 -13.945312 10.148438 -13.960938 9.640625 -13.921875 C 8.359375 -13.859375 7.375 -13.457031 6.6875 -12.71875 C 6.113281 -12.175781 5.742188 -11.53125 5.578125 -10.78125 C 5.421875 -10.039062 5.34375 -9.210938 5.34375 -8.296875 L 5.34375 0 L 2.140625 0 L 2.140625 -16.484375 L 4.96875 -16.484375 L 4.96875 -14.09375 C 5.34375 -14.75 5.863281 -15.320312 6.53125 -15.8125 C 7.039062 -16.175781 7.582031 -16.441406 8.15625 -16.609375 C 8.738281 -16.785156 9.328125 -16.882812 9.921875 -16.90625 Z M 9.921875 -16.90625 "/></g></g></g><g fill="#ffffff" fill-opacity="1"><g transform="translate(95.893293, 47.267625)"><g><path d="M 4.640625 -7.359375 C 4.679688 -6.785156 4.785156 -6.226562 4.953125 -5.6875 C 5.128906 -5.15625 5.378906 -4.664062 5.703125 -4.21875 C 6.109375 -3.664062 6.625 -3.25 7.25 -2.96875 C 7.882812 -2.695312 8.5625 -2.5625 9.28125 -2.5625 C 10.394531 -2.5625 11.316406 -2.828125 12.046875 -3.359375 C 12.421875 -3.617188 12.726562 -3.898438 12.96875 -4.203125 C 13.21875 -4.515625 13.421875 -4.84375 13.578125 -5.1875 L 16.6875 -4.1875 C 16.0625 -2.695312 15.097656 -1.554688 13.796875 -0.765625 C 12.472656 0.046875 11.023438 0.453125 9.453125 0.453125 C 8.234375 0.453125 7.054688 0.21875 5.921875 -0.25 C 4.796875 -0.71875 3.867188 -1.390625 3.140625 -2.265625 C 2.472656 -3.097656 1.984375 -4.015625 1.671875 -5.015625 C 1.367188 -6.023438 1.21875 -7.050781 1.21875 -8.09375 C 1.21875 -9.226562 1.375 -10.328125 1.6875 -11.390625 C 2.007812 -12.460938 2.492188 -13.40625 3.140625 -14.21875 C 3.890625 -15.113281 4.800781 -15.789062 5.875 -16.25 C 6.957031 -16.707031 8.09375 -16.9375 9.28125 -16.9375 C 11.71875 -16.9375 13.671875 -16.070312 15.140625 -14.34375 C 15.910156 -13.40625 16.421875 -12.34375 16.671875 -11.15625 C 16.929688 -9.96875 17.019531 -8.703125 16.9375 -7.359375 Z M 9.28125 -14.09375 C 8.625 -14.113281 7.976562 -13.992188 7.34375 -13.734375 C 6.71875 -13.484375 6.171875 -13.066406 5.703125 -12.484375 C 5.421875 -12.097656 5.203125 -11.691406 5.046875 -11.265625 C 4.898438 -10.835938 4.785156 -10.390625 4.703125 -9.921875 L 13.671875 -9.921875 C 13.628906 -10.429688 13.539062 -10.90625 13.40625 -11.34375 C 13.28125 -11.78125 13.070312 -12.191406 12.78125 -12.578125 C 12.394531 -13.097656 11.882812 -13.484375 11.25 -13.734375 C 10.625 -13.992188 9.96875 -14.113281 9.28125 -14.09375 Z M 9.28125 -14.09375 "/></g></g></g><g fill="#ffffff" fill-opacity="1"><g transform="translate(114.085457, 47.267625)"><g><path d="M 15.53125 0 L 12.71875 0 L 12.71875 -2.34375 C 11.945312 -1.3125 11.070312 -0.585938 10.09375 -0.171875 C 9.125 0.242188 7.976562 0.453125 6.65625 0.453125 C 5.039062 0.453125 3.726562 0 2.71875 -0.90625 C 1.71875 -1.8125 1.21875 -3.035156 1.21875 -4.578125 C 1.21875 -5.640625 1.441406 -6.550781 1.890625 -7.3125 C 2.335938 -8.070312 3.082031 -8.707031 4.125 -9.21875 C 4.8125 -9.539062 5.613281 -9.800781 6.53125 -10 C 7.445312 -10.207031 8.40625 -10.382812 9.40625 -10.53125 C 10.414062 -10.675781 11.390625 -10.816406 12.328125 -10.953125 C 12.242188 -11.910156 11.875 -12.644531 11.21875 -13.15625 C 10.570312 -13.664062 9.710938 -13.921875 8.640625 -13.921875 C 7.785156 -13.921875 6.976562 -13.78125 6.21875 -13.5 C 5.46875 -13.226562 4.78125 -12.742188 4.15625 -12.046875 L 2.234375 -14.15625 C 3.941406 -16.007812 6.164062 -16.9375 8.90625 -16.9375 C 9.757812 -16.9375 10.59375 -16.773438 11.40625 -16.453125 C 12.226562 -16.140625 12.921875 -15.742188 13.484375 -15.265625 C 14.265625 -14.609375 14.800781 -13.816406 15.09375 -12.890625 C 15.382812 -11.960938 15.53125 -10.992188 15.53125 -9.984375 Z M 11.75 -4.609375 C 12.070312 -5.140625 12.253906 -5.710938 12.296875 -6.328125 C 12.335938 -6.953125 12.359375 -7.628906 12.359375 -8.359375 C 11.441406 -8.210938 10.554688 -8.0625 9.703125 -7.90625 C 8.847656 -7.757812 8.097656 -7.617188 7.453125 -7.484375 C 6.628906 -7.296875 5.910156 -6.984375 5.296875 -6.546875 C 4.691406 -6.109375 4.390625 -5.535156 4.390625 -4.828125 C 4.390625 -4.066406 4.671875 -3.445312 5.234375 -2.96875 C 5.796875 -2.5 6.492188 -2.265625 7.328125 -2.265625 C 8.316406 -2.265625 9.191406 -2.472656 9.953125 -2.890625 C 10.722656 -3.304688 11.320312 -3.878906 11.75 -4.609375 Z M 11.75 -4.609375 "/></g></g></g><g fill="#ffffff" fill-opacity="1"><g transform="translate(131.453481, 47.267625)"><g><path d="M 23.40625 -15.53125 C 24.21875 -14.78125 24.707031 -13.96875 24.875 -13.09375 C 25.050781 -12.21875 25.140625 -11.21875 25.140625 -10.09375 L 25.140625 0 L 21.90625 0 L 21.9375 -9.890625 C 21.9375 -10.640625 21.875 -11.265625 21.75 -11.765625 C 21.632812 -12.265625 21.34375 -12.726562 20.875 -13.15625 C 20.59375 -13.4375 20.242188 -13.648438 19.828125 -13.796875 C 19.421875 -13.953125 19.015625 -14.03125 18.609375 -14.03125 C 17.554688 -14.03125 16.703125 -13.65625 16.046875 -12.90625 C 15.722656 -12.476562 15.507812 -12.054688 15.40625 -11.640625 C 15.3125 -11.222656 15.265625 -10.78125 15.265625 -10.3125 L 15.265625 -10.09375 L 15.234375 0 L 12.03125 0 L 12.03125 -9.890625 C 12.03125 -10.640625 11.96875 -11.265625 11.84375 -11.765625 C 11.71875 -12.265625 11.421875 -12.726562 10.953125 -13.15625 C 10.367188 -13.738281 9.628906 -14.03125 8.734375 -14.03125 C 7.648438 -14.03125 6.796875 -13.65625 6.171875 -12.90625 C 5.816406 -12.476562 5.585938 -12.054688 5.484375 -11.640625 C 5.390625 -11.222656 5.34375 -10.78125 5.34375 -10.3125 L 5.34375 0 L 2.140625 0 L 2.140625 -16.484375 L 4.96875 -16.484375 L 4.96875 -14.671875 C 5.519531 -15.390625 6.207031 -15.941406 7.03125 -16.328125 C 7.851562 -16.710938 8.722656 -16.90625 9.640625 -16.90625 C 10.296875 -16.90625 10.976562 -16.796875 11.6875 -16.578125 C 12.394531 -16.367188 13.003906 -16.019531 13.515625 -15.53125 C 13.742188 -15.332031 13.9375 -15.117188 14.09375 -14.890625 C 14.257812 -14.671875 14.414062 -14.445312 14.5625 -14.21875 L 14.5625 -14.25 C 15.082031 -15.082031 15.789062 -15.734375 16.6875 -16.203125 C 17.582031 -16.671875 18.53125 -16.90625 19.53125 -16.90625 C 20.1875 -16.90625 20.867188 -16.796875 21.578125 -16.578125 C 22.285156 -16.367188 22.894531 -16.019531 23.40625 -15.53125 Z M 23.40625 -15.53125 "/></g></g></g><g fill="#ffffff" fill-opacity="1"><g transform="translate(158.43649, 47.267625)"><g><path d="M 2.140625 0 L 5.34375 0 L 5.34375 -22.4375 L 2.140625 -22.4375 Z M 2.140625 0 "/></g></g></g><g fill="#ffffff" fill-opacity="1"><g transform="translate(165.914806, 47.267625)"><g><path d="M 4.640625 -7.359375 C 4.679688 -6.785156 4.785156 -6.226562 4.953125 -5.6875 C 5.128906 -5.15625 5.378906 -4.664062 5.703125 -4.21875 C 6.109375 -3.664062 6.625 -3.25 7.25 -2.96875 C 7.882812 -2.695312 8.5625 -2.5625 9.28125 -2.5625 C 10.394531 -2.5625 11.316406 -2.828125 12.046875 -3.359375 C 12.421875 -3.617188 12.726562 -3.898438 12.96875 -4.203125 C 13.21875 -4.515625 13.421875 -4.84375 13.578125 -5.1875 L 16.6875 -4.1875 C 16.0625 -2.695312 15.097656 -1.554688 13.796875 -0.765625 C 12.472656 0.046875 11.023438 0.453125 9.453125 0.453125 C 8.234375 0.453125 7.054688 0.21875 5.921875 -0.25 C 4.796875 -0.71875 3.867188 -1.390625 3.140625 -2.265625 C 2.472656 -3.097656 1.984375 -4.015625 1.671875 -5.015625 C 1.367188 -6.023438 1.21875 -7.050781 1.21875 -8.09375 C 1.21875 -9.226562 1.375 -10.328125 1.6875 -11.390625 C 2.007812 -12.460938 2.492188 -13.40625 3.140625 -14.21875 C 3.890625 -15.113281 4.800781 -15.789062 5.875 -16.25 C 6.957031 -16.707031 8.09375 -16.9375 9.28125 -16.9375 C 11.71875 -16.9375 13.671875 -16.070312 15.140625 -14.34375 C 15.910156 -13.40625 16.421875 -12.34375 16.671875 -11.15625 C 16.929688 -9.96875 17.019531 -8.703125 16.9375 -7.359375 Z M 9.28125 -14.09375 C 8.625 -14.113281 7.976562 -13.992188 7.34375 -13.734375 C 6.71875 -13.484375 6.171875 -13.066406 5.703125 -12.484375 C 5.421875 -12.097656 5.203125 -11.691406 5.046875 -11.265625 C 4.898438 -10.835938 4.785156 -10.390625 4.703125 -9.921875 L 13.671875 -9.921875 C 13.628906 -10.429688 13.539062 -10.90625 13.40625 -11.34375 C 13.28125 -11.78125 13.070312 -12.191406 12.78125 -12.578125 C 12.394531 -13.097656 11.882812 -13.484375 11.25 -13.734375 C 10.625 -13.992188 9.96875 -14.113281 9.28125 -14.09375 Z M 9.28125 -14.09375 "/></g></g></g><g fill="#ffffff" fill-opacity="1"><g transform="translate(184.106971, 47.267625)"><g><path d="M 15.078125 -12.140625 L 12.046875 -11.40625 C 11.703125 -12.34375 11.164062 -13.023438 10.4375 -13.453125 C 9.707031 -13.878906 8.882812 -14.101562 7.96875 -14.125 C 7.414062 -14.144531 6.890625 -14.082031 6.390625 -13.9375 C 5.890625 -13.800781 5.476562 -13.585938 5.15625 -13.296875 C 4.832031 -13.015625 4.671875 -12.679688 4.671875 -12.296875 C 4.671875 -11.785156 4.878906 -11.40625 5.296875 -11.15625 C 5.710938 -10.914062 6.253906 -10.707031 6.921875 -10.53125 C 7.390625 -10.382812 7.878906 -10.238281 8.390625 -10.09375 C 8.898438 -9.957031 9.476562 -9.796875 10.125 -9.609375 C 11.59375 -9.222656 12.800781 -8.613281 13.75 -7.78125 C 14.695312 -6.945312 15.171875 -5.867188 15.171875 -4.546875 C 15.171875 -3.796875 14.972656 -3.054688 14.578125 -2.328125 C 14.179688 -1.609375 13.644531 -1.046875 12.96875 -0.640625 C 12.28125 -0.210938 11.566406 0.0703125 10.828125 0.21875 C 10.097656 0.375 9.335938 0.453125 8.546875 0.453125 C 7.460938 0.453125 6.453125 0.304688 5.515625 0.015625 C 4.585938 -0.273438 3.742188 -0.8125 2.984375 -1.59375 C 2.503906 -2.113281 2.125 -2.644531 1.84375 -3.1875 C 1.570312 -3.726562 1.363281 -4.253906 1.21875 -4.765625 L 4.125 -5.578125 C 4.238281 -5.191406 4.394531 -4.820312 4.59375 -4.46875 C 4.789062 -4.113281 5.019531 -3.804688 5.28125 -3.546875 C 5.707031 -3.117188 6.207031 -2.8125 6.78125 -2.625 C 7.363281 -2.4375 7.960938 -2.34375 8.578125 -2.34375 C 9.023438 -2.34375 9.519531 -2.398438 10.0625 -2.515625 C 10.613281 -2.628906 11.054688 -2.796875 11.390625 -3.015625 C 11.953125 -3.421875 12.234375 -3.929688 12.234375 -4.546875 C 12.234375 -5.203125 11.9375 -5.671875 11.34375 -5.953125 C 10.757812 -6.234375 10.101562 -6.476562 9.375 -6.6875 C 8.59375 -6.90625 7.96875 -7.082031 7.5 -7.21875 C 7.039062 -7.351562 6.664062 -7.460938 6.375 -7.546875 C 6.09375 -7.640625 5.816406 -7.726562 5.546875 -7.8125 C 5.066406 -8 4.570312 -8.222656 4.0625 -8.484375 C 3.550781 -8.742188 3.101562 -9.066406 2.71875 -9.453125 C 2.375 -9.847656 2.125 -10.300781 1.96875 -10.8125 C 1.8125 -11.332031 1.734375 -11.785156 1.734375 -12.171875 C 1.734375 -13.128906 2.003906 -13.972656 2.546875 -14.703125 C 3.085938 -15.441406 3.765625 -15.984375 4.578125 -16.328125 C 5.191406 -16.585938 5.796875 -16.753906 6.390625 -16.828125 C 6.992188 -16.898438 7.578125 -16.9375 8.140625 -16.9375 C 8.710938 -16.9375 9.296875 -16.867188 9.890625 -16.734375 C 10.492188 -16.609375 11.070312 -16.398438 11.625 -16.109375 C 12.414062 -15.722656 13.117188 -15.171875 13.734375 -14.453125 C 14.359375 -13.742188 14.804688 -12.972656 15.078125 -12.140625 Z M 15.078125 -12.140625 "/></g></g></g><g fill="#ffffff" fill-opacity="1"><g transform="translate(200.52875, 47.267625)"><g><path d="M 15.078125 -12.140625 L 12.046875 -11.40625 C 11.703125 -12.34375 11.164062 -13.023438 10.4375 -13.453125 C 9.707031 -13.878906 8.882812 -14.101562 7.96875 -14.125 C 7.414062 -14.144531 6.890625 -14.082031 6.390625 -13.9375 C 5.890625 -13.800781 5.476562 -13.585938 5.15625 -13.296875 C 4.832031 -13.015625 4.671875 -12.679688 4.671875 -12.296875 C 4.671875 -11.785156 4.878906 -11.40625 5.296875 -11.15625 C 5.710938 -10.914062 6.253906 -10.707031 6.921875 -10.53125 C 7.390625 -10.382812 7.878906 -10.238281 8.390625 -10.09375 C 8.898438 -9.957031 9.476562 -9.796875 10.125 -9.609375 C 11.59375 -9.222656 12.800781 -8.613281 13.75 -7.78125 C 14.695312 -6.945312 15.171875 -5.867188 15.171875 -4.546875 C 15.171875 -3.796875 14.972656 -3.054688 14.578125 -2.328125 C 14.179688 -1.609375 13.644531 -1.046875 12.96875 -0.640625 C 12.28125 -0.210938 11.566406 0.0703125 10.828125 0.21875 C 10.097656 0.375 9.335938 0.453125 8.546875 0.453125 C 7.460938 0.453125 6.453125 0.304688 5.515625 0.015625 C 4.585938 -0.273438 3.742188 -0.8125 2.984375 -1.59375 C 2.503906 -2.113281 2.125 -2.644531 1.84375 -3.1875 C 1.570312 -3.726562 1.363281 -4.253906 1.21875 -4.765625 L 4.125 -5.578125 C 4.238281 -5.191406 4.394531 -4.820312 4.59375 -4.46875 C 4.789062 -4.113281 5.019531 -3.804688 5.28125 -3.546875 C 5.707031 -3.117188 6.207031 -2.8125 6.78125 -2.625 C 7.363281 -2.4375 7.960938 -2.34375 8.578125 -2.34375 C 9.023438 -2.34375 9.519531 -2.398438 10.0625 -2.515625 C 10.613281 -2.628906 11.054688 -2.796875 11.390625 -3.015625 C 11.953125 -3.421875 12.234375 -3.929688 12.234375 -4.546875 C 12.234375 -5.203125 11.9375 -5.671875 11.34375 -5.953125 C 10.757812 -6.234375 10.101562 -6.476562 9.375 -6.6875 C 8.59375 -6.90625 7.96875 -7.082031 7.5 -7.21875 C 7.039062 -7.351562 6.664062 -7.460938 6.375 -7.546875 C 6.09375 -7.640625 5.816406 -7.726562 5.546875 -7.8125 C 5.066406 -8 4.570312 -8.222656 4.0625 -8.484375 C 3.550781 -8.742188 3.101562 -9.066406 2.71875 -9.453125 C 2.375 -9.847656 2.125 -10.300781 1.96875 -10.8125 C 1.8125 -11.332031 1.734375 -11.785156 1.734375 -12.171875 C 1.734375 -13.128906 2.003906 -13.972656 2.546875 -14.703125 C 3.085938 -15.441406 3.765625 -15.984375 4.578125 -16.328125 C 5.191406 -16.585938 5.796875 -16.753906 6.390625 -16.828125 C 6.992188 -16.898438 7.578125 -16.9375 8.140625 -16.9375 C 8.710938 -16.9375 9.296875 -16.867188 9.890625 -16.734375 C 10.492188 -16.609375 11.070312 -16.398438 11.625 -16.109375 C 12.414062 -15.722656 13.117188 -15.171875 13.734375 -14.453125 C 14.359375 -13.742188 14.804688 -12.972656 15.078125 -12.140625 Z M 15.078125 -12.140625 "/></g></g></g><g fill="#8473e3" fill-opacity="1"><g transform="translate(3.032663, 55.518019)"><g><path d="M 38.328125 -36.921875 L 38.328125 -21.953125 L 20.078125 -36.921875 Z M 15.015625 -36.734375 L 15.34375 -36.734375 L 35.234375 -20.46875 C 35.847656 -19.914062 36.410156 -19.375 36.921875 -18.84375 C 37.441406 -18.3125 38.070312 -17.550781 38.8125 -16.5625 C 39.90625 -15.039062 40.453125 -13.238281 40.453125 -11.15625 C 40.453125 -9.3125 40 -7.535156 39.09375 -5.828125 C 38.195312 -4.128906 36.789062 -2.734375 34.875 -1.640625 C 32.957031 -0.546875 30.582031 0 27.75 0 L 9.890625 -13.515625 C 7.378906 -15.410156 5.535156 -17.347656 4.359375 -19.328125 C 3.191406 -21.304688 2.609375 -23.421875 2.609375 -25.671875 C 2.609375 -27.890625 3.15625 -29.835938 4.25 -31.515625 C 5.34375 -33.191406 6.828125 -34.476562 8.703125 -35.375 C 10.585938 -36.28125 12.691406 -36.734375 15.015625 -36.734375 Z M 2.796875 -15.4375 L 22.484375 0 L 2.796875 0 Z M 2.796875 -15.4375 "/></g></g></g></svg>